<svg width="175" height="171" viewBox="0 0 175 171" fill="none" xmlns="http://www.w3.org/2000/svg">
<path d="M7.57422 0.703115C6.19336 1.14061 4.92188 2.54882 4.6211 3.97069C4.03321 6.74608 6.75391 9.46679 9.5293 8.8789C11.1152 8.55077 12.5508 7.11522 12.8789 5.52929C13.5078 2.57616 10.459 -0.199228 7.57422 0.703115Z" fill="#C336E5" fill-opacity="0.13"/>
<path d="M25.0742 0.703115C23.6934 1.14061 22.4219 2.54882 22.1211 3.97069C21.5332 6.74608 24.2539 9.46679 27.0293 8.8789C28.6152 8.55077 30.0508 7.11522 30.3789 5.52929C31.0078 2.57616 27.959 -0.199228 25.0742 0.703115Z" fill="#C336E5" fill-opacity="0.13"/>
<path d="M42.5742 0.703115C41.1934 1.14061 39.9219 2.54882 39.6211 3.97069C39.0332 6.74608 41.7539 9.46679 44.5293 8.8789C46.1152 8.55077 47.5508 7.11522 47.8789 5.52929C48.5078 2.57616 45.459 -0.199228 42.5742 0.703115Z" fill="#C336E5" fill-opacity="0.13"/>
<path d="M60.0742 0.703115C58.6934 1.14061 57.4219 2.54882 57.1211 3.97069C56.5332 6.74608 59.2539 9.46679 62.0293 8.8789C63.6152 8.55077 65.0508 7.11522 65.3789 5.52929C66.0078 2.57616 62.959 -0.199228 60.0742 0.703115Z" fill="#C336E5" fill-opacity="0.13"/>
<path d="M77.5742 0.703115C76.1934 1.14061 74.9219 2.54882 74.6211 3.97069C74.1699 6.1035 75.7422 8.41405 77.9707 8.8789C80.7461 9.46679 83.4668 6.74608 82.8789 3.97069C82.3731 1.57811 79.8164 0.00584793 77.5742 0.703115Z" fill="#C336E5" fill-opacity="0.13"/>
<path d="M95.0742 0.703115C93.6934 1.14061 92.4219 2.54882 92.1211 3.97069C91.67 6.1035 93.2422 8.41405 95.4707 8.8789C98.2461 9.46679 100.967 6.74608 100.379 3.97069C99.8731 1.57811 97.3164 0.00584793 95.0742 0.703115Z" fill="#C336E5" fill-opacity="0.13"/>
<path d="M112.574 0.703115C111.193 1.14061 109.922 2.54882 109.621 3.97069C109.17 6.1035 110.742 8.41405 112.971 8.8789C115.746 9.46679 118.467 6.74608 117.879 3.97069C117.373 1.57811 114.816 0.00584793 112.574 0.703115Z" fill="#C336E5" fill-opacity="0.13"/>
<path d="M130.074 0.703115C128.693 1.14061 127.422 2.54882 127.121 3.97069C126.67 6.1035 128.242 8.41405 130.471 8.8789C133.246 9.46679 135.967 6.74608 135.379 3.97069C134.873 1.57811 132.316 0.00584793 130.074 0.703115Z" fill="#C336E5" fill-opacity="0.13"/>
<path d="M147.574 0.703115C146.193 1.14061 144.922 2.54882 144.621 3.97069C144.033 6.74608 146.754 9.46679 149.529 8.8789C151.115 8.55077 152.551 7.11522 152.879 5.52929C153.508 2.57616 150.459 -0.199228 147.574 0.703115Z" fill="#C336E5" fill-opacity="0.13"/>
<path d="M165.074 0.703115C163.693 1.14061 162.422 2.54882 162.121 3.97069C161.533 6.74608 164.254 9.46679 167.029 8.8789C168.615 8.55077 170.051 7.11522 170.379 5.52929C171.008 2.57616 167.959 -0.199228 165.074 0.703115Z" fill="#C336E5" fill-opacity="0.13"/>
<path d="M7.57422 18.2031C6.19336 18.6406 4.92188 20.0488 4.6211 21.4707C4.03321 24.2461 6.75391 26.9668 9.5293 26.3789C11.1152 26.0508 12.5508 24.6152 12.8789 23.0293C13.5078 20.0761 10.459 17.3008 7.57422 18.2031Z" fill="#C336E5" fill-opacity="0.13"/>
<path d="M25.0742 18.2031C23.6934 18.6406 22.4219 20.0488 22.1211 21.4707C21.5332 24.2461 24.2539 26.9668 27.0293 26.3789C28.6152 26.0508 30.0508 24.6152 30.3789 23.0293C31.0078 20.0761 27.959 17.3008 25.0742 18.2031Z" fill="#C336E5" fill-opacity="0.13"/>
<path d="M42.5742 18.2031C41.1934 18.6406 39.9219 20.0488 39.6211 21.4707C39.0332 24.2461 41.7539 26.9668 44.5293 26.3789C46.1152 26.0508 47.5508 24.6152 47.8789 23.0293C48.5078 20.0761 45.459 17.3008 42.5742 18.2031Z" fill="#C336E5" fill-opacity="0.13"/>
<path d="M60.0742 18.2031C58.6934 18.6406 57.4219 20.0488 57.1211 21.4707C56.5332 24.2461 59.2539 26.9668 62.0293 26.3789C63.6152 26.0508 65.0508 24.6152 65.3789 23.0293C66.0078 20.0761 62.959 17.3008 60.0742 18.2031Z" fill="#C336E5" fill-opacity="0.13"/>
<path d="M77.5742 18.2031C76.1934 18.6406 74.9219 20.0488 74.6211 21.4707C74.1699 23.6035 75.7422 25.914 77.9707 26.3789C80.7461 26.9668 83.4668 24.2461 82.8789 21.4707C82.3731 19.0781 79.8164 17.5058 77.5742 18.2031Z" fill="#C336E5" fill-opacity="0.13"/>
<path d="M95.0742 18.2031C93.6934 18.6406 92.4219 20.0488 92.1211 21.4707C91.5332 24.2461 94.2539 26.9668 97.0293 26.3789C99.2578 25.914 100.83 23.6035 100.379 21.4707C99.8731 19.0781 97.3164 17.5058 95.0742 18.2031Z" fill="#C336E5" fill-opacity="0.13"/>
<path d="M112.574 18.2031C111.193 18.6406 109.922 20.0488 109.621 21.4707C109.033 24.2461 111.754 26.9668 114.529 26.3789C116.758 25.914 118.33 23.6035 117.879 21.4707C117.373 19.0781 114.816 17.5058 112.574 18.2031Z" fill="#C336E5" fill-opacity="0.13"/>
<path d="M130.074 18.2031C128.693 18.6406 127.422 20.0488 127.121 21.4707C126.533 24.2461 129.254 26.9668 132.029 26.3789C134.258 25.914 135.83 23.6035 135.379 21.4707C134.873 19.0781 132.316 17.5058 130.074 18.2031Z" fill="#C336E5" fill-opacity="0.13"/>
<path d="M147.574 18.2031C146.193 18.6406 144.922 20.0488 144.621 21.4707C144.033 24.2461 146.754 26.9668 149.529 26.3789C151.115 26.0508 152.551 24.6152 152.879 23.0293C153.508 20.0761 150.459 17.3008 147.574 18.2031Z" fill="#C336E5" fill-opacity="0.13"/>
<path d="M165.074 18.2031C163.693 18.6406 162.422 20.0488 162.121 21.4707C161.533 24.2461 164.254 26.9668 167.029 26.3789C168.615 26.0508 170.051 24.6152 170.379 23.0293C171.008 20.0761 167.959 17.3008 165.074 18.2031Z" fill="#C336E5" fill-opacity="0.13"/>
<path d="M7.57422 35.7031C6.19336 36.1406 4.92188 37.5488 4.6211 38.9707C4.03321 41.7461 6.75391 44.4668 9.5293 43.8789C11.1152 43.5508 12.5508 42.1152 12.8789 40.5293C13.5078 37.5762 10.459 34.8008 7.57422 35.7031Z" fill="#C336E5" fill-opacity="0.13"/>
<path d="M25.0742 35.7031C23.6934 36.1406 22.4219 37.5488 22.1211 38.9707C21.5332 41.7461 24.2539 44.4668 27.0293 43.8789C28.6152 43.5508 30.0508 42.1152 30.3789 40.5293C31.0078 37.5762 27.959 34.8008 25.0742 35.7031Z" fill="#C336E5" fill-opacity="0.13"/>
<path d="M42.5742 35.7031C41.1934 36.1406 39.9219 37.5488 39.6211 38.9707C39.0332 41.7461 41.7539 44.4668 44.5293 43.8789C46.1152 43.5508 47.5508 42.1152 47.8789 40.5293C48.5078 37.5762 45.459 34.8008 42.5742 35.7031Z" fill="#C336E5" fill-opacity="0.13"/>
<path d="M60.0742 35.7031C58.6934 36.1406 57.4219 37.5488 57.1211 38.9707C56.5332 41.7461 59.2539 44.4668 62.0293 43.8789C63.6152 43.5508 65.0508 42.1152 65.3789 40.5293C66.0078 37.5762 62.959 34.8008 60.0742 35.7031Z" fill="#C336E5" fill-opacity="0.13"/>
<path d="M77.5742 35.7031C76.1934 36.1406 74.9219 37.5488 74.6211 38.9707C74.0332 41.7461 76.7539 44.4668 79.5293 43.8789C81.1153 43.5508 82.5508 42.1152 82.8789 40.5293C83.5078 37.5762 80.459 34.8008 77.5742 35.7031Z" fill="#C336E5" fill-opacity="0.13"/>
<path d="M95.0742 35.7031C93.6934 36.1406 92.4219 37.5488 92.1211 38.9707C91.5332 41.7461 94.2539 44.4668 97.0293 43.8789C98.6153 43.5508 100.051 42.1152 100.379 40.5293C101.008 37.5762 97.959 34.8008 95.0742 35.7031Z" fill="#C336E5" fill-opacity="0.13"/>
<path d="M112.574 35.7031C111.193 36.1406 109.922 37.5488 109.621 38.9707C109.033 41.7461 111.754 44.4668 114.529 43.8789C116.115 43.5508 117.551 42.1152 117.879 40.5293C118.508 37.5762 115.459 34.8008 112.574 35.7031Z" fill="#C336E5" fill-opacity="0.13"/>
<path d="M130.074 35.7031C128.693 36.1406 127.422 37.5488 127.121 38.9707C126.533 41.7461 129.254 44.4668 132.029 43.8789C133.615 43.5508 135.051 42.1152 135.379 40.5293C136.008 37.5762 132.959 34.8008 130.074 35.7031Z" fill="#C336E5" fill-opacity="0.13"/>
<path d="M147.574 35.7031C146.193 36.1406 144.922 37.5488 144.621 38.9707C144.033 41.7461 146.754 44.4668 149.529 43.8789C151.115 43.5508 152.551 42.1152 152.879 40.5293C153.508 37.5762 150.459 34.8008 147.574 35.7031Z" fill="#C336E5" fill-opacity="0.13"/>
<path d="M165.074 35.7031C163.693 36.1406 162.422 37.5488 162.121 38.9707C161.533 41.7461 164.254 44.4668 167.029 43.8789C168.615 43.5508 170.051 42.1152 170.379 40.5293C171.008 37.5762 167.959 34.8008 165.074 35.7031Z" fill="#C336E5" fill-opacity="0.13"/>
<path d="M7.57422 53.2031C6.19336 53.6406 4.92188 55.0488 4.6211 56.4707C4.03321 59.2461 6.75391 61.9668 9.5293 61.3789C11.1152 61.0508 12.5508 59.6152 12.8789 58.0293C13.5078 55.0762 10.459 52.3008 7.57422 53.2031Z" fill="#C336E5" fill-opacity="0.13"/>
<path d="M25.0742 53.2031C23.6934 53.6406 22.4219 55.0488 22.1211 56.4707C21.5332 59.2461 24.2539 61.9668 27.0293 61.3789C28.6152 61.0508 30.0508 59.6152 30.3789 58.0293C31.0078 55.0762 27.959 52.3008 25.0742 53.2031Z" fill="#C336E5" fill-opacity="0.13"/>
<path d="M42.5742 53.2031C41.1934 53.6406 39.9219 55.0488 39.6211 56.4707C39.0332 59.2461 41.7539 61.9668 44.5293 61.3789C46.1152 61.0508 47.5508 59.6152 47.8789 58.0293C48.5078 55.0762 45.459 52.3008 42.5742 53.2031Z" fill="#C336E5" fill-opacity="0.13"/>
<path d="M60.0742 53.2031C58.6934 53.6406 57.4219 55.0488 57.1211 56.4707C56.5332 59.2461 59.2539 61.9668 62.0293 61.3789C63.6152 61.0508 65.0508 59.6152 65.3789 58.0293C66.0078 55.0762 62.959 52.3008 60.0742 53.2031Z" fill="#C336E5" fill-opacity="0.13"/>
<path d="M77.5742 53.2031C76.1934 53.6406 74.9219 55.0488 74.6211 56.4707C74.0332 59.2461 76.7539 61.9668 79.5293 61.3789C81.1153 61.0508 82.5508 59.6152 82.8789 58.0293C83.5078 55.0762 80.459 52.3008 77.5742 53.2031Z" fill="#C336E5" fill-opacity="0.13"/>
<path d="M95.0742 53.2031C93.6934 53.6406 92.4219 55.0488 92.1211 56.4707C91.5332 59.2461 94.2539 61.9668 97.0293 61.3789C98.6153 61.0508 100.051 59.6152 100.379 58.0293C101.008 55.0762 97.959 52.3008 95.0742 53.2031Z" fill="#C336E5" fill-opacity="0.13"/>
<path d="M112.574 53.2031C111.193 53.6406 109.922 55.0488 109.621 56.4707C109.033 59.2461 111.754 61.9668 114.529 61.3789C116.115 61.0508 117.551 59.6152 117.879 58.0293C118.508 55.0762 115.459 52.3008 112.574 53.2031Z" fill="#C336E5" fill-opacity="0.13"/>
<path d="M130.074 53.2031C128.693 53.6406 127.422 55.0488 127.121 56.4707C126.533 59.2461 129.254 61.9668 132.029 61.3789C133.615 61.0508 135.051 59.6152 135.379 58.0293C136.008 55.0762 132.959 52.3008 130.074 53.2031Z" fill="#C336E5" fill-opacity="0.13"/>
<path d="M147.574 53.2031C146.193 53.6406 144.922 55.0488 144.621 56.4707C144.033 59.2461 146.754 61.9668 149.529 61.3789C151.115 61.0508 152.551 59.6152 152.879 58.0293C153.508 55.0762 150.459 52.3008 147.574 53.2031Z" fill="#C336E5" fill-opacity="0.13"/>
<path d="M165.074 53.2031C163.693 53.6406 162.422 55.0488 162.121 56.4707C161.533 59.2461 164.254 61.9668 167.029 61.3789C168.615 61.0508 170.051 59.6152 170.379 58.0293C171.008 55.0762 167.959 52.3008 165.074 53.2031Z" fill="#C336E5" fill-opacity="0.13"/>
<path d="M7.57422 70.7031C6.19336 71.1406 4.92188 72.5488 4.6211 73.9707C4.03321 76.7461 6.75391 79.4668 9.5293 78.8789C11.1152 78.5508 12.5508 77.1152 12.8789 75.5293C13.5078 72.5762 10.459 69.8008 7.57422 70.7031Z" fill="#C336E5" fill-opacity="0.13"/>
<path d="M25.0742 70.7031C23.6934 71.1406 22.4219 72.5488 22.1211 73.9707C21.5332 76.7461 24.2539 79.4668 27.0293 78.8789C28.6152 78.5508 30.0508 77.1152 30.3789 75.5293C31.0078 72.5762 27.959 69.8008 25.0742 70.7031Z" fill="#C336E5" fill-opacity="0.13"/>
<path d="M42.5742 70.7031C41.1934 71.1406 39.9219 72.5488 39.6211 73.9707C39.0332 76.7461 41.7539 79.4668 44.5293 78.8789C46.1152 78.5508 47.5508 77.1152 47.8789 75.5293C48.5078 72.5762 45.459 69.8008 42.5742 70.7031Z" fill="#C336E5" fill-opacity="0.13"/>
<path d="M60.0742 70.7031C58.6934 71.1406 57.4219 72.5488 57.1211 73.9707C56.5332 76.7461 59.2539 79.4668 62.0293 78.8789C63.6152 78.5508 65.0508 77.1152 65.3789 75.5293C66.0078 72.5762 62.959 69.8008 60.0742 70.7031Z" fill="#C336E5" fill-opacity="0.13"/>
<path d="M77.5742 70.7031C76.1934 71.1406 74.9219 72.5488 74.6211 73.9707C74.0332 76.7461 76.7539 79.4668 79.5293 78.8789C81.1153 78.5508 82.5508 77.1152 82.8789 75.5293C83.5078 72.5762 80.459 69.8008 77.5742 70.7031Z" fill="#C336E5" fill-opacity="0.13"/>
<path d="M95.0742 70.7031C93.6934 71.1406 92.4219 72.5488 92.1211 73.9707C91.5332 76.7461 94.2539 79.4668 97.0293 78.8789C98.6153 78.5508 100.051 77.1152 100.379 75.5293C101.008 72.5762 97.959 69.8008 95.0742 70.7031Z" fill="#C336E5" fill-opacity="0.13"/>
<path d="M112.574 70.7031C111.193 71.1406 109.922 72.5488 109.621 73.9707C109.033 76.7461 111.754 79.4668 114.529 78.8789C116.115 78.5508 117.551 77.1152 117.879 75.5293C118.508 72.5762 115.459 69.8008 112.574 70.7031Z" fill="#C336E5" fill-opacity="0.13"/>
<path d="M130.074 70.7031C128.693 71.1406 127.422 72.5488 127.121 73.9707C126.533 76.7461 129.254 79.4668 132.029 78.8789C133.615 78.5508 135.051 77.1152 135.379 75.5293C136.008 72.5762 132.959 69.8008 130.074 70.7031Z" fill="#C336E5" fill-opacity="0.13"/>
<path d="M147.574 70.7031C146.193 71.1406 144.922 72.5488 144.621 73.9707C144.033 76.7461 146.754 79.4668 149.529 78.8789C151.115 78.5508 152.551 77.1152 152.879 75.5293C153.508 72.5762 150.459 69.8008 147.574 70.7031Z" fill="#C336E5" fill-opacity="0.13"/>
<path d="M165.074 70.7031C163.693 71.1406 162.422 72.5488 162.121 73.9707C161.533 76.7461 164.254 79.4668 167.029 78.8789C168.615 78.5508 170.051 77.1152 170.379 75.5293C171.008 72.5762 167.959 69.8008 165.074 70.7031Z" fill="#C336E5" fill-opacity="0.13"/>
<path d="M7.57422 88.2031C6.19336 88.6406 4.92188 90.0488 4.6211 91.4707C4.03321 94.2461 6.75391 96.9668 9.5293 96.3789C11.1152 96.0508 12.5508 94.6152 12.8789 93.0293C13.5078 90.0762 10.459 87.3008 7.57422 88.2031Z" fill="#C336E5" fill-opacity="0.13"/>
<path d="M25.0742 88.2031C23.6934 88.6406 22.4219 90.0488 22.1211 91.4707C21.5332 94.2461 24.2539 96.9668 27.0293 96.3789C28.6152 96.0508 30.0508 94.6152 30.3789 93.0293C31.0078 90.0762 27.959 87.3008 25.0742 88.2031Z" fill="#C336E5" fill-opacity="0.13"/>
<path d="M42.5742 88.2031C41.1934 88.6406 39.9219 90.0488 39.6211 91.4707C39.0332 94.2461 41.7539 96.9668 44.5293 96.3789C46.1152 96.0508 47.5508 94.6152 47.8789 93.0293C48.5078 90.0762 45.459 87.3008 42.5742 88.2031Z" fill="#C336E5" fill-opacity="0.13"/>
<path d="M60.0742 88.2031C58.6934 88.6406 57.4219 90.0488 57.1211 91.4707C56.5332 94.2461 59.2539 96.9668 62.0293 96.3789C63.6152 96.0508 65.0508 94.6152 65.3789 93.0293C66.0078 90.0762 62.959 87.3008 60.0742 88.2031Z" fill="#C336E5" fill-opacity="0.13"/>
<path d="M77.5742 88.2031C76.1934 88.6406 74.9219 90.0488 74.6211 91.4707C74.0332 94.2461 76.7539 96.9668 79.5293 96.3789C81.1153 96.0508 82.5508 94.6152 82.8789 93.0293C83.5078 90.0762 80.459 87.3008 77.5742 88.2031Z" fill="#C336E5" fill-opacity="0.13"/>
<path d="M95.0742 88.2031C93.6934 88.6406 92.4219 90.0488 92.1211 91.4707C91.5332 94.2461 94.2539 96.9668 97.0293 96.3789C98.6153 96.0508 100.051 94.6152 100.379 93.0293C101.008 90.0762 97.959 87.3008 95.0742 88.2031Z" fill="#C336E5" fill-opacity="0.13"/>
<path d="M112.574 88.2031C111.193 88.6406 109.922 90.0488 109.621 91.4707C109.033 94.2461 111.754 96.9668 114.529 96.3789C116.115 96.0508 117.551 94.6152 117.879 93.0293C118.508 90.0762 115.459 87.3008 112.574 88.2031Z" fill="#C336E5" fill-opacity="0.13"/>
<path d="M130.074 88.2031C128.693 88.6406 127.422 90.0488 127.121 91.4707C126.533 94.2461 129.254 96.9668 132.029 96.3789C133.615 96.0508 135.051 94.6152 135.379 93.0293C136.008 90.0762 132.959 87.3008 130.074 88.2031Z" fill="#C336E5" fill-opacity="0.13"/>
<path d="M147.574 88.2031C146.193 88.6406 144.922 90.0488 144.621 91.4707C144.033 94.2461 146.754 96.9668 149.529 96.3789C151.115 96.0508 152.551 94.6152 152.879 93.0293C153.508 90.0762 150.459 87.3008 147.574 88.2031Z" fill="#C336E5" fill-opacity="0.13"/>
<path d="M165.074 88.2031C163.693 88.6406 162.422 90.0488 162.121 91.4707C161.533 94.2461 164.254 96.9668 167.029 96.3789C168.615 96.0508 170.051 94.6152 170.379 93.0293C171.008 90.0762 167.959 87.3008 165.074 88.2031Z" fill="#C336E5" fill-opacity="0.13"/>
<path d="M7.57422 105.703C6.19336 106.141 4.92188 107.549 4.6211 108.971C4.03321 111.746 6.75391 114.467 9.5293 113.879C11.1152 113.551 12.5508 112.115 12.8789 110.529C13.5078 107.576 10.459 104.801 7.57422 105.703Z" fill="#C336E5" fill-opacity="0.13"/>
<path d="M25.0742 105.703C23.6934 106.141 22.4219 107.549 22.1211 108.971C21.5332 111.746 24.2539 114.467 27.0293 113.879C28.6152 113.551 30.0508 112.115 30.3789 110.529C31.0078 107.576 27.959 104.801 25.0742 105.703Z" fill="#C336E5" fill-opacity="0.13"/>
<path d="M42.5742 105.703C41.1934 106.141 39.9219 107.549 39.6211 108.971C39.0332 111.746 41.7539 114.467 44.5293 113.879C46.1152 113.551 47.5508 112.115 47.8789 110.529C48.5078 107.576 45.459 104.801 42.5742 105.703Z" fill="#C336E5" fill-opacity="0.13"/>
<path d="M60.0742 105.703C58.6934 106.141 57.4219 107.549 57.1211 108.971C56.5332 111.746 59.2539 114.467 62.0293 113.879C63.6152 113.551 65.0508 112.115 65.3789 110.529C66.0078 107.576 62.959 104.801 60.0742 105.703Z" fill="#C336E5" fill-opacity="0.13"/>
<path d="M77.5742 105.703C76.1934 106.141 74.9219 107.549 74.6211 108.971C74.0332 111.746 76.7539 114.467 79.5293 113.879C81.1153 113.551 82.5508 112.115 82.8789 110.529C83.5078 107.576 80.459 104.801 77.5742 105.703Z" fill="#C336E5" fill-opacity="0.13"/>
<path d="M95.0742 105.703C93.6934 106.141 92.4219 107.549 92.1211 108.971C91.5332 111.746 94.2539 114.467 97.0293 113.879C98.6153 113.551 100.051 112.115 100.379 110.529C101.008 107.576 97.959 104.801 95.0742 105.703Z" fill="#C336E5" fill-opacity="0.13"/>
<path d="M112.574 105.703C111.193 106.141 109.922 107.549 109.621 108.971C109.033 111.746 111.754 114.467 114.529 113.879C116.115 113.551 117.551 112.115 117.879 110.529C118.508 107.576 115.459 104.801 112.574 105.703Z" fill="#C336E5" fill-opacity="0.13"/>
<path d="M130.074 105.703C128.693 106.141 127.422 107.549 127.121 108.971C126.533 111.746 129.254 114.467 132.029 113.879C133.615 113.551 135.051 112.115 135.379 110.529C136.008 107.576 132.959 104.801 130.074 105.703Z" fill="#C336E5" fill-opacity="0.13"/>
<path d="M147.574 105.703C146.193 106.141 144.922 107.549 144.621 108.971C144.033 111.746 146.754 114.467 149.529 113.879C151.115 113.551 152.551 112.115 152.879 110.529C153.508 107.576 150.459 104.801 147.574 105.703Z" fill="#C336E5" fill-opacity="0.13"/>
<path d="M165.074 105.703C163.693 106.141 162.422 107.549 162.121 108.971C161.533 111.746 164.254 114.467 167.029 113.879C168.615 113.551 170.051 112.115 170.379 110.529C171.008 107.576 167.959 104.801 165.074 105.703Z" fill="#C336E5" fill-opacity="0.13"/>
<path d="M7.57422 123.203C6.19336 123.641 4.92188 125.049 4.6211 126.471C4.03321 129.246 6.75391 131.967 9.5293 131.379C11.1152 131.051 12.5508 129.615 12.8789 128.029C13.5078 125.076 10.459 122.301 7.57422 123.203Z" fill="#C336E5" fill-opacity="0.13"/>
<path d="M25.0742 123.203C23.6934 123.641 22.4219 125.049 22.1211 126.471C21.5332 129.246 24.2539 131.967 27.0293 131.379C28.6152 131.051 30.0508 129.615 30.3789 128.029C31.0078 125.076 27.959 122.301 25.0742 123.203Z" fill="#C336E5" fill-opacity="0.13"/>
<path d="M42.5742 123.203C41.1934 123.641 39.9219 125.049 39.6211 126.471C39.0332 129.246 41.7539 131.967 44.5293 131.379C46.1152 131.051 47.5508 129.615 47.8789 128.029C48.5078 125.076 45.459 122.301 42.5742 123.203Z" fill="#C336E5" fill-opacity="0.13"/>
<path d="M60.0742 123.203C58.6934 123.641 57.4219 125.049 57.1211 126.471C56.5332 129.246 59.2539 131.967 62.0293 131.379C63.6152 131.051 65.0508 129.615 65.3789 128.029C66.0078 125.076 62.959 122.301 60.0742 123.203Z" fill="#C336E5" fill-opacity="0.13"/>
<path d="M77.5742 123.203C76.1934 123.641 74.9219 125.049 74.6211 126.471C74.0332 129.246 76.7539 131.967 79.5293 131.379C81.1153 131.051 82.5508 129.615 82.8789 128.029C83.5078 125.076 80.459 122.301 77.5742 123.203Z" fill="#C336E5" fill-opacity="0.13"/>
<path d="M95.0742 123.203C93.6934 123.641 92.4219 125.049 92.1211 126.471C91.5332 129.246 94.2539 131.967 97.0293 131.379C98.6153 131.051 100.051 129.615 100.379 128.029C101.008 125.076 97.959 122.301 95.0742 123.203Z" fill="#C336E5" fill-opacity="0.13"/>
<path d="M112.574 123.203C111.193 123.641 109.922 125.049 109.621 126.471C109.033 129.246 111.754 131.967 114.529 131.379C116.115 131.051 117.551 129.615 117.879 128.029C118.508 125.076 115.459 122.301 112.574 123.203Z" fill="#C336E5" fill-opacity="0.13"/>
<path d="M130.074 123.203C128.693 123.641 127.422 125.049 127.121 126.471C126.533 129.246 129.254 131.967 132.029 131.379C133.615 131.051 135.051 129.615 135.379 128.029C136.008 125.076 132.959 122.301 130.074 123.203Z" fill="#C336E5" fill-opacity="0.13"/>
<path d="M147.574 123.203C146.193 123.641 144.922 125.049 144.621 126.471C144.033 129.246 146.754 131.967 149.529 131.379C151.115 131.051 152.551 129.615 152.879 128.029C153.508 125.076 150.459 122.301 147.574 123.203Z" fill="#C336E5" fill-opacity="0.13"/>
<path d="M165.074 123.203C163.693 123.641 162.422 125.049 162.121 126.471C161.533 129.246 164.254 131.967 167.029 131.379C168.615 131.051 170.051 129.615 170.379 128.029C171.008 125.076 167.959 122.301 165.074 123.203Z" fill="#C336E5" fill-opacity="0.13"/>
<path d="M7.57422 140.703C6.19336 141.141 4.92188 142.549 4.6211 143.971C4.03321 146.746 6.75391 149.467 9.5293 148.879C11.1152 148.551 12.5508 147.115 12.8789 145.529C13.5078 142.576 10.459 139.801 7.57422 140.703Z" fill="#C336E5" fill-opacity="0.13"/>
<path d="M25.0742 140.703C23.6934 141.141 22.4219 142.549 22.1211 143.971C21.5332 146.746 24.2539 149.467 27.0293 148.879C28.6152 148.551 30.0508 147.115 30.3789 145.529C31.0078 142.576 27.959 139.801 25.0742 140.703Z" fill="#C336E5" fill-opacity="0.13"/>
<path d="M42.5742 140.703C41.1934 141.141 39.9219 142.549 39.6211 143.971C39.0332 146.746 41.7539 149.467 44.5293 148.879C46.1152 148.551 47.5508 147.115 47.8789 145.529C48.5078 142.576 45.459 139.801 42.5742 140.703Z" fill="#C336E5" fill-opacity="0.13"/>
<path d="M60.0742 140.703C58.6934 141.141 57.4219 142.549 57.1211 143.971C56.5332 146.746 59.2539 149.467 62.0293 148.879C63.6152 148.551 65.0508 147.115 65.3789 145.529C66.0078 142.576 62.959 139.801 60.0742 140.703Z" fill="#C336E5" fill-opacity="0.13"/>
<path d="M77.5742 140.703C76.1934 141.141 74.9219 142.549 74.6211 143.971C74.0332 146.746 76.7539 149.467 79.5293 148.879C81.1153 148.551 82.5508 147.115 82.8789 145.529C83.5078 142.576 80.459 139.801 77.5742 140.703Z" fill="#C336E5" fill-opacity="0.13"/>
<path d="M95.0742 140.703C93.6934 141.141 92.4219 142.549 92.1211 143.971C91.5332 146.746 94.2539 149.467 97.0293 148.879C98.6153 148.551 100.051 147.115 100.379 145.529C101.008 142.576 97.959 139.801 95.0742 140.703Z" fill="#C336E5" fill-opacity="0.13"/>
<path d="M112.574 140.703C111.193 141.141 109.922 142.549 109.621 143.971C109.033 146.746 111.754 149.467 114.529 148.879C116.115 148.551 117.551 147.115 117.879 145.529C118.508 142.576 115.459 139.801 112.574 140.703Z" fill="#C336E5" fill-opacity="0.13"/>
<path d="M130.074 140.703C128.693 141.141 127.422 142.549 127.121 143.971C126.533 146.746 129.254 149.467 132.029 148.879C133.615 148.551 135.051 147.115 135.379 145.529C136.008 142.576 132.959 139.801 130.074 140.703Z" fill="#C336E5" fill-opacity="0.13"/>
<path d="M147.574 140.703C146.193 141.141 144.922 142.549 144.621 143.971C144.033 146.746 146.754 149.467 149.529 148.879C151.115 148.551 152.551 147.115 152.879 145.529C153.508 142.576 150.459 139.801 147.574 140.703Z" fill="#C336E5" fill-opacity="0.13"/>
<path d="M165.074 140.703C163.693 141.141 162.422 142.549 162.121 143.971C161.533 146.746 164.254 149.467 167.029 148.879C168.615 148.551 170.051 147.115 170.379 145.529C171.008 142.576 167.959 139.801 165.074 140.703Z" fill="#C336E5" fill-opacity="0.13"/>
<path d="M7.57422 158.203C6.19336 158.641 4.92188 160.049 4.6211 161.471C4.03321 164.246 6.75391 166.967 9.5293 166.379C11.7578 165.914 13.3301 163.604 12.8789 161.471C12.373 159.078 9.81641 157.506 7.57422 158.203Z" fill="#C336E5" fill-opacity="0.13"/>
<path d="M25.0742 158.203C23.6934 158.641 22.4219 160.049 22.1211 161.471C21.5332 164.246 24.2539 166.967 27.0293 166.379C28.6152 166.051 30.0508 164.615 30.3789 163.029C31.0078 160.076 27.959 157.301 25.0742 158.203Z" fill="#C336E5" fill-opacity="0.13"/>
<path d="M42.5742 158.203C41.1934 158.641 39.9219 160.049 39.6211 161.471C39.0332 164.246 41.7539 166.967 44.5293 166.379C46.1152 166.051 47.5508 164.615 47.8789 163.029C48.5078 160.076 45.459 157.301 42.5742 158.203Z" fill="#C336E5" fill-opacity="0.13"/>
<path d="M60.0742 158.203C58.6934 158.641 57.4219 160.049 57.1211 161.471C56.5332 164.246 59.2539 166.967 62.0293 166.379C63.6152 166.051 65.0508 164.615 65.3789 163.029C66.0078 160.076 62.959 157.301 60.0742 158.203Z" fill="#C336E5" fill-opacity="0.13"/>
<path d="M77.5742 158.203C76.1934 158.641 74.9219 160.049 74.6211 161.471C74.0332 164.246 76.7539 166.967 79.5293 166.379C81.1153 166.051 82.5508 164.615 82.8789 163.029C83.5078 160.076 80.459 157.301 77.5742 158.203Z" fill="#C336E5" fill-opacity="0.13"/>
<path d="M95.0742 158.203C93.6934 158.641 92.4219 160.049 92.1211 161.471C91.5332 164.246 94.2539 166.967 97.0293 166.379C98.6153 166.051 100.051 164.615 100.379 163.029C101.008 160.076 97.959 157.301 95.0742 158.203Z" fill="#C336E5" fill-opacity="0.13"/>
<path d="M112.574 158.203C111.193 158.641 109.922 160.049 109.621 161.471C109.033 164.246 111.754 166.967 114.529 166.379C116.115 166.051 117.551 164.615 117.879 163.029C118.508 160.076 115.459 157.301 112.574 158.203Z" fill="#C336E5" fill-opacity="0.13"/>
<path d="M130.074 158.203C128.693 158.641 127.422 160.049 127.121 161.471C126.533 164.246 129.254 166.967 132.029 166.379C133.615 166.051 135.051 164.615 135.379 163.029C136.008 160.076 132.959 157.301 130.074 158.203Z" fill="#C336E5" fill-opacity="0.13"/>
<path d="M147.574 158.203C146.193 158.641 144.922 160.049 144.621 161.471C144.033 164.246 146.754 166.967 149.529 166.379C151.115 166.051 152.551 164.615 152.879 163.029C153.508 160.076 150.459 157.301 147.574 158.203Z" fill="#C336E5" fill-opacity="0.13"/>
<path d="M165.074 158.203C163.693 158.641 162.422 160.049 162.121 161.471C161.533 164.246 164.254 166.967 167.029 166.379C168.615 166.051 170.051 164.615 170.379 163.029C171.008 160.076 167.959 157.301 165.074 158.203Z" fill="#C336E5" fill-opacity="0.13"/>
</svg>
