<svg width="32" height="32" viewBox="0 0 32 32" fill="none" xmlns="http://www.w3.org/2000/svg">
<path fill-rule="evenodd" clip-rule="evenodd" d="M28.9 1.5H3.1C2.21634 1.5 1.5 2.21634 1.5 3.1V28.9C1.5 29.7837 2.21634 30.5 3.1 30.5H17V19.285H13.225V14.895H17V11.665C17 7.92 19.29 5.88 22.63 5.88C23.7555 5.87755 24.8804 5.93429 26 6.05V9.965H23.7C21.88 9.965 21.525 10.825 21.525 12.095V14.89H25.875L25.31 19.28H21.5V30.5H28.9C29.7837 30.5 30.5 29.7837 30.5 28.9V3.1C30.5 2.21634 29.7837 1.5 28.9 1.5Z" fill="black"/>
</svg>
