<svg width="32" height="32" viewBox="0 0 32 32" fill="none" xmlns="http://www.w3.org/2000/svg">
<path fill-rule="evenodd" clip-rule="evenodd" d="M26.2126 26.2112H21.9123V19.48C21.9123 17.8753 21.8833 15.8115 19.676 15.8115C17.4396 15.8115 17.098 17.5612 17.098 19.3656V26.2112H12.801V12.3718H16.9224V14.2632H16.982C17.5572 13.1757 18.959 12.0286 21.0519 12.0286C25.4086 12.0286 26.2126 14.8932 26.2126 18.6213V26.2112ZM7.95125 10.4819C6.56884 10.4819 5.45389 9.36383 5.45389 7.98633C5.45389 6.61044 6.56884 5.49233 7.95125 5.49233C9.3256 5.49233 10.4438 6.61044 10.4438 7.98633C10.4438 9.36383 9.3256 10.4819 7.95125 10.4819ZM5.79546 26.2112H10.1022V12.3718H5.79546V26.2112ZM28.3539 1.5H3.63806C2.45866 1.5 1.5 2.43606 1.5 3.59122V28.4072C1.5 29.5623 2.45866 30.5 3.63806 30.5H28.3539C29.5365 30.5 30.5 29.5623 30.5 28.4072V3.59122C30.5 2.43606 29.5365 1.5 28.3539 1.5Z" fill="black"/>
</svg>
