<svg width="32" height="32" viewBox="0 0 32 32" fill="none" xmlns="http://www.w3.org/2000/svg">
<path fill-rule="evenodd" clip-rule="evenodd" d="M15.999 1.5C7.99139 1.5 1.49991 7.99188 1.49991 15.9999C1.49991 22.1427 5.32161 27.3942 10.7151 29.5069C10.5884 28.3597 10.474 26.5953 10.7655 25.3429C11.0289 24.2114 12.4656 18.1355 12.4656 18.1355C12.4656 18.1355 12.0319 17.2669 12.0319 15.9827C12.0319 13.9665 13.2005 12.4612 14.6554 12.4612C15.8925 12.4612 16.4899 13.3901 16.4899 14.5039C16.4899 15.7478 15.6979 17.6079 15.2892 19.3316C14.9476 20.7749 16.0129 21.9518 17.4362 21.9518C20.0132 21.9518 21.9941 19.2345 21.9941 15.3119C21.9941 11.8402 19.4996 9.41273 15.9377 9.41273C11.8124 9.41273 9.39076 12.5072 9.39076 15.7054C9.39076 16.9515 9.87081 18.288 10.4698 19.0143C10.5883 19.1579 10.6057 19.2838 10.5705 19.4302C10.4603 19.8883 10.2157 20.8732 10.1677 21.0747C10.1045 21.3401 9.95757 21.3963 9.68278 21.2686C7.87195 20.4256 6.73976 17.778 6.73976 15.6512C6.73976 11.0772 10.0629 6.87674 16.3199 6.87674C21.3496 6.87674 25.2583 10.461 25.2583 15.2511C25.2583 20.2485 22.1076 24.2702 17.7346 24.2702C16.2654 24.2702 14.8841 23.5069 14.4113 22.6052C14.4113 22.6052 13.6843 25.3737 13.508 26.052C13.1807 27.3116 12.2971 28.8903 11.706 29.8533C13.0626 30.2733 14.5043 30.5 15.999 30.5C24.0066 30.5 30.4981 24.0081 30.4981 15.9999C30.4981 7.99188 24.0066 1.5 15.999 1.5Z" fill="black"/>
</svg>
