<svg width="32" height="32" viewBox="0 0 32 32" fill="none" xmlns="http://www.w3.org/2000/svg">
<path fill-rule="evenodd" clip-rule="evenodd" d="M10.2379 28.7176C21.9358 28.7176 28.3367 19.0169 28.3367 10.6188C28.3367 10.3459 28.3367 10.073 28.3243 9.80006C29.5648 8.9069 30.6441 7.77805 31.5 6.50034C30.3587 7.00894 29.1307 7.34388 27.8405 7.50514C29.1555 6.72363 30.1603 5.47073 30.6441 3.98213C29.416 4.71402 28.0514 5.23503 26.6 5.52035C25.434 4.27985 23.7841 3.51074 21.9606 3.51074C18.45 3.51074 15.5968 6.36388 15.5968 9.87449C15.5968 10.3707 15.6589 10.8545 15.7581 11.3259C10.4736 11.0654 5.78451 8.52235 2.64606 4.67681C2.10024 5.61959 1.79012 6.71122 1.79012 7.87729C1.79012 10.0854 2.91897 12.033 4.61845 13.1742C3.57643 13.137 2.59644 12.8517 1.7405 12.3803C1.7405 12.4051 1.7405 12.4299 1.7405 12.4671C1.7405 15.5436 3.93617 18.1238 6.83894 18.7068C6.30552 18.8557 5.7473 18.9301 5.16427 18.9301C4.7549 18.9301 4.35794 18.8929 3.97339 18.8185C4.77971 21.3491 7.13665 23.185 9.91537 23.2346C7.73209 24.9465 4.9906 25.9637 2.01341 25.9637C1.5048 25.9637 0.996198 25.9389 0.5 25.8769C3.30352 27.6632 6.65286 28.7176 10.2379 28.7176Z" fill="black"/>
</svg>
